<?xml version="1.0" encoding="iso-8859-1"?>
<!-- Uploaded to: SVG Repo, www.svgrepo.com, Generator: SVG Repo Mixer Tools -->
<svg height="800px" width="800px" version="1.1" id="Layer_1" xmlns="http://www.w3.org/2000/svg" xmlns:xlink="http://www.w3.org/1999/xlink" 
	 viewBox="0 0 511.997 511.997" xml:space="preserve">
<path style="fill:#EC589B;" d="M303.778,81.268l0.114,0.068v70.233h-95.868V19.19l0.171,0.114
	c-0.33-6.081,1.116-11.172,4.601-14.657c5.216-5.216,14.065-5.888,24.417-2.779c12.197,3.656,26.49,12.562,39.404,25.476
	C295.191,45.918,305.464,67.317,303.778,81.268z"/>
<path style="fill:#D3468D;" d="M237.214,70.176v81.394h-29.189V19.19l0.171,0.114c0.74,13.769,10.705,32.594,27.287,49.176
	C236.052,69.049,236.633,69.618,237.214,70.176z"/>
<ellipse transform="matrix(-0.7071 -0.7071 0.7071 -0.7071 403.2223 262.8438)" style="fill:#F676B6;" cx="256.048" cy="47.912" rx="61.18" ry="29.086"/>
<polyline style="fill:#F7C957;" points="322.398,254.055 322.398,149.861 189.597,149.861 189.597,254.055 "/>
<polyline style="fill:#D8B356;" points="226.958,254.055 226.958,149.861 189.597,149.861 189.597,254.055 "/>
<path style="fill:#EC589B;" d="M343.115,252.351H168.88v241.07c0,10.259,8.317,18.576,18.576,18.576h137.085
	c10.259,0,18.576-8.317,18.576-18.576v-241.07H343.115z"/>
<path style="fill:#D3468D;" d="M213.293,252.351H168.88v241.07c0,10.259,8.317,18.576,18.576,18.576h25.837V252.351z"/>
</svg>